<svg width="500" height="500" viewBox="0 0 500 500" fill="none" xmlns="http://www.w3.org/2000/svg">
<rect width="500" height="500" fill="white"/>
<g clip-path="url(#clip0)">
<path d="M304.123 262.237C304.121 260.151 302.429 258.274 300.154 258.274C299.235 258.274 298.296 258.587 297.525 259.279C287.483 268.302 270.392 276.283 249.723 276.336H249.64C229.006 276.283 212.405 267.983 201.837 259.281C201.169 258.731 199.93 258.354 199.126 258.354C196.672 258.354 195.244 260.444 195.241 262.742C195.24 264.516 196.483 265.996 197.505 267.532C203.43 276.427 221.809 291.531 249.466 291.531H249.898C277.554 291.531 295.932 276.427 301.858 267.532C302.881 265.996 304.125 264.01 304.123 262.237Z" fill="#274970"/>
<path d="M304.945 323.207C305.257 323.623 305.423 323.977 305.423 324.361C305.423 324.938 304.876 325.334 304.187 325.334C299.193 325.334 283.806 317.044 275.707 310.211C274.598 309.277 273.046 308.934 270.844 309.414C263.892 310.923 256.799 311.681 249.685 311.677C203.862 311.677 166.713 281.007 166.713 243.163C166.713 205.337 203.862 174.672 249.685 174.672C295.504 174.672 332.651 205.337 332.651 243.163C332.651 265.745 319.422 285.767 299.018 298.249C297.655 299.083 296.202 300.651 296.202 302.613C296.202 306.641 299.987 316.627 304.944 323.207H304.945ZM331.622 331.567C324.58 327.556 317.898 320.774 314.837 311.48C314.237 309.658 314.77 308.185 316.174 307.099C336.545 291.35 349.363 268.485 349.363 243.021C349.363 195.527 304.734 157.026 249.686 157.026C194.631 157.027 150 195.527 150 243.02C150 290.537 194.631 329.045 249.686 329.045C256.879 329.045 263.892 328.387 270.653 327.137C272.313 326.831 273.662 327.22 274.766 327.899C288.409 336.269 308.723 343.291 326.54 343.291C332.279 343.291 334.486 339.651 334.486 336.336C334.486 334.198 333.327 332.538 331.622 331.567V331.567Z" fill="#274970"/>
</g>
<defs>
<clipPath id="clip0">
<rect width="200" height="186.719" fill="white" transform="translate(150 157)"/>
</clipPath>
</defs>
</svg>
