<svg width="200" height="187" viewBox="0 0 200 187" fill="none" xmlns="http://www.w3.org/2000/svg">
<g clip-path="url(#clip0)">
<path d="M154.123 105.237C154.121 103.151 152.429 101.274 150.154 101.274C149.235 101.274 148.296 101.587 147.525 102.279C137.483 111.302 120.392 119.283 99.7234 119.336H99.6398C79.0062 119.283 62.4054 110.983 51.8375 102.281C51.1687 101.731 49.9297 101.354 49.1265 101.354C46.6718 101.354 45.2437 103.444 45.2414 105.742C45.2398 107.516 46.4828 108.996 47.5054 110.532C53.4304 119.427 71.8086 134.531 99.4656 134.531H99.8984C127.554 134.531 145.932 119.427 151.858 110.532C152.881 108.996 154.125 107.01 154.123 105.237Z" fill="#274970"/>
<path d="M154.945 166.207C155.257 166.623 155.423 166.977 155.423 167.361C155.423 167.938 154.876 168.334 154.187 168.334C149.193 168.334 133.806 160.044 125.707 153.211C124.598 152.277 123.046 151.934 120.844 152.414C113.892 153.923 106.799 154.681 99.6852 154.677C53.8617 154.677 16.7125 124.007 16.7125 86.1626C16.7125 48.3368 53.8617 17.672 99.6852 17.672C145.504 17.672 182.651 48.3368 182.651 86.1626C182.651 108.745 169.422 128.767 149.018 141.249C147.655 142.083 146.202 143.651 146.202 145.613C146.202 149.641 149.987 159.627 154.944 166.207H154.945ZM181.622 174.567C174.58 170.556 167.898 163.774 164.837 154.48C164.237 152.658 164.77 151.185 166.174 150.099C186.545 134.35 199.363 111.485 199.363 86.0212C199.363 38.5266 154.734 0.0258636 99.6859 0.0258636C44.6312 0.0266449 0 38.5266 0 86.0204C0 133.537 44.6312 172.045 99.6859 172.045C106.879 172.045 113.892 171.387 120.653 170.137C122.312 169.831 123.662 170.22 124.766 170.899C138.409 179.269 158.723 186.291 176.54 186.291C182.279 186.291 184.486 182.651 184.486 179.336C184.486 177.198 183.327 175.538 181.622 174.567Z" fill="#274970"/>
</g>
<defs>
<clipPath id="clip0">
<rect width="200" height="186.719" fill="white"/>
</clipPath>
</defs>
</svg>
