<svg xmlns="http://www.w3.org/2000/svg" xmlns:xlink="http://www.w3.org/1999/xlink" version="1.1" x="0px" y="0px" viewBox="0 0 56.7 70.875" enable-background="new 0 0 56.7 56.7" xml:space="preserve"><circle fill="none" stroke="#000000" stroke-width="2" stroke-linecap="round" stroke-linejoin="round" stroke-miterlimit="10" cx="28.3" cy="35.1" r="4.3"/><path fill="none" stroke="#000000" stroke-width="2" stroke-linecap="round" stroke-linejoin="round" stroke-miterlimit="10" d="  M36.8,46v-1.5c0-2.3-1.9-4.3-4.3-4.3c-0.6,0.6-1.2,1-2,1.3c-0.7,0.3-1.5,0.5-2.3,0.5c-0.8,0-1.5-0.1-2.3-0.4c-0.7-0.3-1.4-0.7-2-1.3  c-2.3,0-4.3,1.9-4.3,4.3v1.5C25.1,48.2,31.2,48.4,36.8,46L36.8,46z"/><circle fill="none" stroke="#000000" stroke-width="2" stroke-linecap="round" stroke-linejoin="round" stroke-miterlimit="10" cx="45.3" cy="26.6" r="4.3"/><path fill="none" stroke="#000000" stroke-width="2" stroke-linecap="round" stroke-linejoin="round" stroke-miterlimit="10" d="  M53.8,37.5v-1.5c0-2.3-1.9-4.3-4.3-4.3c-0.6,0.6-1.2,1-2,1.3c-0.7,0.3-1.5,0.5-2.3,0.5c-0.8,0-1.6-0.2-2.3-0.5  c-0.7-0.3-1.4-0.7-2-1.3c-2.3,0-4.3,1.9-4.3,4.3v1.5C42,39.7,48.1,39.9,53.8,37.5L53.8,37.5z"/><circle fill="none" stroke="#000000" stroke-width="2" stroke-linecap="round" stroke-linejoin="round" stroke-miterlimit="10" cx="11.4" cy="26.6" r="4.3"/><path fill="none" stroke="#000000" stroke-width="2" stroke-linecap="round" stroke-linejoin="round" stroke-miterlimit="10" d="  M19.8,37.5v-1.5c0-2.3-1.9-4.3-4.3-4.3c-0.6,0.6-1.2,1-2,1.3c-0.7,0.3-1.5,0.5-2.3,0.5c-0.8,0-1.6-0.2-2.3-0.5  c-0.7-0.3-1.4-0.7-2-1.3c-2.3,0-4.3,1.9-4.3,4.3v1.5C8.2,39.7,14.3,39.9,19.8,37.5L19.8,37.5z"/><path fill="none" stroke="#000000" stroke-width="2" stroke-linecap="round" stroke-linejoin="round" stroke-miterlimit="10" d="  M22.7,23h-1.4c-1.6,0-2.8-1.3-2.8-2.8v-8.5c0-1.6,1.3-2.8,2.8-2.8h14.1c1.6,0,2.8,1.3,2.8,2.8l0,0v8.5c0,1.6-1.3,2.8-2.8,2.8H27  c0,2.3-1.9,4.3-4.3,4.3V23L22.7,23z"/><text x="0" y="71.7" fill="#000000" font-size="5px" font-weight="bold" font-family="'Helvetica Neue', Helvetica, Arial-Unicode, Arial, Sans-serif">Created by Danil Polshin</text><text x="0" y="76.7" fill="#000000" font-size="5px" font-weight="bold" font-family="'Helvetica Neue', Helvetica, Arial-Unicode, Arial, Sans-serif">from the Noun Project</text></svg>